<svg id="Layer_1" xmlns="http://www.w3.org/2000/svg" viewBox="0 0 300 300">
  <style>
    .st0{fill:#1C75BC;} .st1{fill:#FFFFFF;} .st2{fill:none;stroke:#EF4136;stroke-miterlimit:10;} .st3{fill:none;stroke:#1C75BC;stroke-miterlimit:10;}
  </style>
  <ellipse id="XMLID_1_" class="st0" cx="150" cy="147" rx="76.7" ry="76.9"/>
  <g id="XMLID_3_">
    <path id="XMLID_4_" class="st1" d="M110.2 126.6c-1.5.9-2.6 2-3.4 3.1-.8 1.2-1.4 3.5-2 6.9-.6 3.4-1.3 6.3-2.2 8.6s-2.4 4.5-4.6 6.5c-2.2 2-5 3.6-8.3 4.7-3.4 1.1-7 1.7-10.8 1.7-3.4 0-6.1-.5-7.9-1.5-1.8-1-2.7-2.4-2.7-4.2 0-.7.1-1.2.2-1.6 1.2-.8 2.7-1.4 4.4-2s2.8-.9 3.4-.9c.9 0 1.4.5 1.4 1.5 0 .2-.1.7-.3 1.7-.2.9-.3 1.5-.3 1.7 0 2.2 1.4 3.3 4.1 3.3 2.8 0 5.2-1.2 7.2-3.7s3.5-6.1 4.4-11c.9-4.9 2.1-8.3 3.7-10.1 1.6-1.9 3.6-3.3 6-4.3s4.3-1.5 5.7-1.5c.6-.1 1.3.3 2 1.1zm-1.3 10.2c2.8 0 4.8-.7 6.1-2.2 1.3-1.5 1.9-3.1 1.9-4.9 0-2.4-1.2-4.4-3.6-5.8-2.4-1.5-5.6-2.2-9.6-2.2-5.4 0-10.2 1.1-14.6 3.2-4.3 2.1-6.5 4.5-6.5 7 0 1.5 1.2 2.7 3.7 3.4.6.2.9.3.9.5v.8c0 .4-1 .9-3.1 1.5s-3.4.9-4.1.9c-1 0-2-.6-3.1-1.7-1-1.1-1.6-2.3-1.6-3.5 0-2.1 1.3-4.3 3.8-6.6s6.1-4.1 10.7-5.5c4.6-1.4 9.9-2.1 15.9-2.1 6.4 0 11.5.9 15.5 2.7 4 1.8 5.9 4.1 5.9 7 0 4.2-4.4 7.1-13.2 8.7 6.9 1.5 10.4 4.3 10.4 8.6 0 3.1-1.7 5.8-5.2 8.1-3.5 2.2-7.6 3.4-12.4 3.4-2.1 0-3.9-.3-5.3-.9-1.4-.6-2.1-1.3-2.1-2.1 0-.5.5-1.3 1.4-2.2.9-.9 1.8-1.4 2.5-1.4 1.1 0 1.7.8 1.9 2.5.2 1.3.8 2 1.8 2 1.7 0 3.3-1.3 4.6-3.9 1.3-2.6 2-5.3 2-7.9 0-3.2-1.7-5-5.1-5.4l.5-2z"/>
    <path id="XMLID_7_" class="st1" d="M154.1 151.6c-3.5 2.2-6.6 3.8-9.3 4.9-2.7 1-5.2 1.6-7.6 1.6-2.8 0-5-.7-6.7-2.2-1.7-1.5-2.5-3.4-2.5-5.9 0-3.7 1.2-8.1 3.5-13.3 2.4-5.2 5.2-10 8.6-14.3l9.9-2.5c.3-.1.5-.1.7-.1.8 0 1.4.4 1.8 1.1.5.7.7 1.8.7 3 0 3.6-1.2 7.1-3.7 10.4-2.4 3.4-6.3 7-11.4 10.8-.2 1.8-.3 3.1-.3 3.8 0 1.5.4 2.7 1.2 3.6.8.9 1.9 1.3 3.3 1.3s2.9-.3 4.5-1 4-2.1 7.2-4.3v3.1zm-14.9-10.3c3.3-2.5 6-5.3 8-8.4 2-3.1 3.1-5.7 3.1-8 0-.7-.1-1.2-.4-1.6-.3-.4-.6-.6-1.1-.6-1 0-2.4 1.6-4.2 4.9s-3.6 7.8-5.4 13.7z"/>
    <path id="XMLID_10_" class="st1" d="M189 151.6c-1.3.8-2.6 1.4-3.9 1.7s-2.2.5-3 .5c-1.9 0-3.7-.5-5.6-1.5-3.7 3.8-8 5.8-12.8 5.8-3 0-5.4-.8-7.3-2.3-1.9-1.5-2.8-3.6-2.8-6.1 0-4 2.1-7.5 6.3-10.4 4.2-2.9 9.2-4.3 15.1-4.3 2.2 0 3.8.2 4.8.5s1.7.7 1.9 1.2.4 1 .4 1.7c0 3.3-1.3 7.3-4 12.1 1.3.8 2.7 1.2 4.2 1.2 1.7 0 4-1 6.7-3.1v3zm-12.8-14.8c-.4-.1-.9-.2-1.7-.2-3.4 0-6 1.2-7.9 3.6s-2.9 5.2-2.9 8.4c0 1.8.4 3.2 1.2 4.2.8 1 2 1.5 3.5 1.5 1.8 0 3.8-1.2 6-3.5-2.4-2.1-3.7-4.3-3.7-6.7.1-2.8 1.9-5.2 5.5-7.3z"/>
    <path id="XMLID_13_" class="st1" d="M227.2 151.6c-3.3 2.3-7.2 4.1-11.8 5.2-2.2 4.6-4.9 8.1-8.2 10.5-3.3 2.5-6.8 3.7-10.5 3.7-2 0-3.7-.4-4.9-1.3s-1.9-2-1.9-3.4c0-1.9 1.2-3.6 3.7-5.1 2.5-1.5 6.7-2.9 12.6-4.3l1.7-5.2c-2.5 1.9-4.6 3.3-6.5 4.2-1.8.9-3.6 1.3-5.5 1.3-2.2 0-3.9-.7-5.3-2.1-1.4-1.4-2.1-3.2-2.1-5.4 0-3.6 2-7 6-10.1 4-3.1 8.3-4.7 12.9-4.7 2.5 0 4.7.7 6.7 2.2 1.2-.3 2.7-.7 4.6-1.3l2.8-.8h.9c-1 2.1-1.8 4.1-2.3 6.1l-3.6 13.2c3.5-.9 7.1-2.8 10.8-5.8v3.1zm-21.8 7.6c-8.4 2-12.6 4.4-12.6 7.1 0 .8.3 1.4 1 1.9s1.6.8 2.7.8c1.9 0 3.5-.8 4.9-2.4 1.4-1.6 2.7-4.1 4-7.4zm-3.3-6.7c1.8 0 3.5-.7 4.9-2.2 1.4-1.5 2.5-3.4 3.3-5.6.8-2.3 1.2-3.9 1.2-4.7 0-.8-.3-1.5-.9-2-.6-.5-1.4-.8-2.3-.8-2.8 0-5.1 1.3-7.2 3.8s-3.1 5.1-3.1 7.7c0 1.2.4 2.2 1.1 2.9s1.8.9 3 .9z"/>
  </g>
  <path id="XMLID_2_" class="st2 hex" d="M201.3 234.9l-102.3.2-51.3-88 51-88.1 102.3-.2 51.3 88z"/>
  <path id="XMLID_17_" class="st3 rect" d="M38.9 50.4h220v193.9h-220z"/>
</svg>
